<svg width="60" height="23" viewBox="0 0 60 23" fill="none" xmlns="http://www.w3.org/2000/svg">
<path d="M9.01831 13.5149C10.2581 13.5149 11.2632 12.5125 11.2632 11.276C11.2632 10.0395 10.2581 9.03711 9.01831 9.03711C7.7785 9.03711 6.77344 10.0395 6.77344 11.276C6.77344 12.5125 7.7785 13.5149 9.01831 13.5149Z" fill="#1C1C1C"/>
<path d="M38.7761 4.47779C40.0159 4.47779 41.021 3.4754 41.021 2.2389C41.021 1.00239 40.0159 0 38.7761 0C37.5363 0 36.5312 1.00239 36.5312 2.2389C36.5312 3.4754 37.5363 4.47779 38.7761 4.47779Z" fill="#1C1C1C"/>
<path d="M57.7527 22.9993C58.9925 22.9993 59.9976 21.9969 59.9976 20.7604C59.9976 19.5239 58.9925 18.5215 57.7527 18.5215C56.5129 18.5215 55.5078 19.5239 55.5078 20.7604C55.5078 21.9969 56.5129 22.9993 57.7527 22.9993Z" fill="#1C1C1C"/>
<path d="M15.7961 22.9996H15.6736C14.5308 22.9996 13.6328 22.104 13.6328 20.9642V2.03536C13.6328 0.895558 14.5308 0 15.6736 0H15.7961C16.9389 0 17.8369 0.895558 17.8369 2.03536V20.9642C17.8369 22.0633 16.8981 22.9996 15.7961 22.9996Z" fill="#1C1C1C"/>
<path d="M2.16324 22.9996H2.0408C0.897951 22.9996 0 22.104 0 20.9642V2.03536C0 0.895558 0.897951 0 2.0408 0H2.16324C3.30609 0 4.20404 0.895558 4.20404 2.03536V20.9642C4.20404 22.0633 3.30609 22.9996 2.16324 22.9996Z" fill="#1C1C1C"/>
<path d="M48.7336 22.9996H48.6111C47.4683 22.9996 46.5703 22.104 46.5703 20.9642V2.03536C46.5703 0.895558 47.4683 0 48.6111 0H48.7336C49.8764 0 50.7744 0.895558 50.7744 2.03536V20.9642C50.7744 22.0633 49.8764 22.9996 48.7336 22.9996Z" fill="#1C1C1C"/>
<path d="M32.1222 22.9589H31.9997C30.8569 22.9589 29.959 22.0633 29.959 20.9235V3.62294H24.1223C24.1223 3.62294 22.3672 3.66365 22.3672 1.83182C22.3672 0 23.959 0 23.959 0H32.1222C33.265 0 34.163 0.895558 34.163 2.03536V20.9642C34.163 22.0633 33.265 22.9589 32.1222 22.9589Z" fill="#1C1C1C"/>
</svg>
