<svg width="40" height="40" viewBox="0 0 40 40" fill="none" xmlns="http://www.w3.org/2000/svg">
<path d="M20 0C8.97287 0 0 8.97094 0 20C0 31.0291 8.97287 40 20 40C31.0271 40 40 31.0291 40 20C40 8.97094 31.0271 0 20 0ZM20 38.6678C9.70752 38.6678 1.33458 30.2931 1.33458 20C1.33458 9.70687 9.70752 1.33217 20 1.33217C30.2925 1.33217 38.6654 9.70687 38.6654 20C38.6654 30.2931 30.2925 38.6678 20 38.6678Z" fill="white"/>
<path d="M24.3645 8.77397H21.0368C16.7986 8.73156 16.2572 11.3547 16.2572 14.1937V16.2581H14.3863C14.3018 16.2468 14.2157 16.2551 14.1349 16.2825C14.0541 16.3098 13.9807 16.3554 13.9204 16.4158C13.8601 16.4761 13.8144 16.5495 13.7871 16.6303C13.7598 16.7111 13.7514 16.7972 13.7627 16.8817V20.6238C13.7514 20.7084 13.7598 20.7944 13.7871 20.8752C13.8144 20.956 13.8601 21.0294 13.9204 21.0898C13.9807 21.1501 14.0541 21.1957 14.1349 21.2231C14.2157 21.2504 14.3018 21.2588 14.3863 21.2475H16.2572V30.6026C16.2468 30.6873 16.256 30.7733 16.2839 30.8539C16.3118 30.9346 16.3578 31.0078 16.4183 31.068C16.4788 31.1282 16.5523 31.1737 16.6331 31.2011C16.7139 31.2286 16.8 31.2372 16.8846 31.2263H20.695C21.063 31.2687 21.3611 30.9705 21.2438 30.6026L21.2463 21.2475H24.3645C24.4491 21.2588 24.5351 21.2504 24.6159 21.2231C24.6967 21.1957 24.7701 21.1501 24.8305 21.0898C24.8908 21.0294 24.9364 20.956 24.9637 20.8752C24.9911 20.7944 24.9994 20.7084 24.9881 20.6238V16.8817C24.9994 16.7972 24.9911 16.7111 24.9637 16.6303C24.9364 16.5495 24.8908 16.4761 24.8305 16.4158C24.7701 16.3554 24.6967 16.3098 24.6159 16.2825C24.5351 16.2551 24.4491 16.2468 24.3645 16.2581H21.2426L21.2463 14.387C21.3673 13.59 21.3673 13.7197 22.1069 13.7634H24.3383C24.5117 13.7247 24.6963 13.7459 24.826 13.6199C24.9557 13.4939 25.0306 13.3218 24.9869 13.1397V9.39764C24.9984 9.31314 24.9903 9.22713 24.9631 9.1463C24.9359 9.06547 24.8904 8.99201 24.8302 8.93165C24.7699 8.87128 24.6966 8.82565 24.6158 8.7983C24.535 8.77095 24.449 8.76262 24.3645 8.77397ZM23.6972 12.4462L22.1331 12.3863C20.1961 12.3863 20.034 13.4378 20.034 14.5143L20.029 16.8792C20.0288 16.9668 20.0459 17.0536 20.0793 17.1345C20.1127 17.2155 20.1618 17.2891 20.2236 17.351C20.2855 17.413 20.359 17.4622 20.4399 17.4958C20.5208 17.5293 20.6075 17.5466 20.695 17.5466H23.7409V19.9565H20.6975C20.5208 19.9565 20.3512 20.0266 20.2261 20.1515C20.101 20.2763 20.0306 20.4458 20.0302 20.6225L20.029 29.9789H17.5045V20.6238C17.5045 20.2558 17.2538 19.9577 16.8846 19.9577H15.01V17.5478H16.8846C16.9721 17.548 17.0588 17.5308 17.1397 17.4974C17.2206 17.4641 17.2941 17.4151 17.3561 17.3532C17.4808 17.2273 17.5033 17.0576 17.5033 16.8805V14.1925C17.5033 11.3959 18.0683 10.0637 21.0355 10.0637H23.696V12.4462H23.6972Z" fill="white"/>
</svg>
