<svg width="30" height="30" viewBox="0 0 30 30" fill="none" xmlns="http://www.w3.org/2000/svg">
<path d="M21.2859 17.658L12.3468 8.70953C12.2598 8.62236 12.1564 8.55321 12.0426 8.50603C11.9288 8.45885 11.8068 8.43457 11.6836 8.43457C11.5604 8.43457 11.4384 8.45885 11.3245 8.50603C11.2107 8.55321 11.1073 8.62236 11.0203 8.70953L8.71402 11.0205C8.53941 11.1961 8.44141 11.4337 8.44141 11.6814C8.44141 11.9291 8.53941 12.1667 8.71402 12.3423L17.6531 21.2908C17.7407 21.3777 17.8446 21.4464 17.9588 21.4931C18.073 21.5397 18.1953 21.5634 18.3187 21.5627C18.5663 21.5628 18.8039 21.4651 18.9796 21.2908L21.2859 18.9798C21.4605 18.8042 21.5585 18.5666 21.5585 18.3189C21.5585 18.0712 21.4605 17.8336 21.2859 17.658ZM18.3187 20.6252L9.37496 11.6814L11.6812 9.37515L13.4578 11.1517L12.4031 12.1877L13.064 12.8486L14.1187 11.8127L16.0546 13.7486L15 14.8033L15.6656 15.4689L16.7203 14.4142L18.6562 16.3502L17.6015 17.4048L18.2812 18.0658L19.3359 17.0111L20.625 18.3189L18.3187 20.6252Z" fill="white"/>
<circle cx="15" cy="15" r="14.5" stroke="white" stroke-opacity="0.5"/>
</svg>
