<svg width="15" height="17" viewBox="0 0 15 17" fill="none" xmlns="http://www.w3.org/2000/svg">
<path d="M7.5 0.666992C6.67591 0.666992 5.87033 0.911363 5.18512 1.3692C4.49992 1.82704 3.96587 2.47779 3.6505 3.23914C3.33514 4.0005 3.25262 4.83828 3.41339 5.64654C3.57417 6.45479 3.971 7.19722 4.55372 7.77994C5.13644 8.36266 5.87887 8.75949 6.68712 8.92027C7.49538 9.08104 8.33315 8.99852 9.09451 8.68316C9.85587 8.36779 10.5066 7.83374 10.9645 7.14854C11.4223 6.46333 11.6667 5.65775 11.6667 4.83366C11.6667 3.72859 11.2277 2.66878 10.4463 1.88738C9.66488 1.10598 8.60507 0.666992 7.5 0.666992ZM7.5 7.33366C7.00555 7.33366 6.5222 7.18704 6.11107 6.91233C5.69995 6.63763 5.37952 6.24718 5.1903 5.79037C5.00108 5.33355 4.95157 4.83089 5.04804 4.34593C5.1445 3.86098 5.3826 3.41552 5.73223 3.06589C6.08186 2.71626 6.52732 2.47816 7.01227 2.3817C7.49723 2.28523 7.99989 2.33474 8.45671 2.52396C8.91352 2.71318 9.30397 3.03361 9.57867 3.44473C9.85338 3.85586 10 4.33921 10 4.83366C10 5.4967 9.73661 6.13259 9.26777 6.60143C8.79893 7.07027 8.16304 7.33366 7.5 7.33366ZM15 16.5003V15.667C15 14.1199 14.3854 12.6362 13.2915 11.5422C12.1975 10.4482 10.7138 9.83366 9.16667 9.83366H5.83333C4.28624 9.83366 2.80251 10.4482 1.70854 11.5422C0.614581 12.6362 0 14.1199 0 15.667V16.5003H1.66667V15.667C1.66667 14.5619 2.10565 13.5021 2.88705 12.7207C3.66846 11.9393 4.72826 11.5003 5.83333 11.5003H9.16667C10.2717 11.5003 11.3315 11.9393 12.1129 12.7207C12.8943 13.5021 13.3333 14.5619 13.3333 15.667V16.5003H15Z" fill="#1C1C1C"/>
</svg>
