<svg width="20" height="20" viewBox="0 0 20 20" fill="none" xmlns="http://www.w3.org/2000/svg">
<path d="M18.1239 17.2411L13.4039 12.5211C14.5382 11.1595 15.1038 9.41291 14.9831 7.64483C14.8624 5.87675 14.0647 4.22326 12.7559 3.02834C11.4472 1.83341 9.72813 1.18906 7.95639 1.22932C6.18465 1.26958 4.49663 1.99134 3.2435 3.24448C1.99037 4.49761 1.2686 6.18562 1.22834 7.95736C1.18808 9.7291 1.83244 11.4482 3.02736 12.7569C4.22228 14.0657 5.87577 14.8634 7.64385 14.9841C9.41193 15.1047 11.1585 14.5391 12.5202 13.4049L17.2402 18.1249L18.1239 17.2411ZM2.49891 8.12489C2.49891 7.01237 2.82881 5.92483 3.4469 4.99981C4.06498 4.07478 4.94348 3.35381 5.97132 2.92807C6.99915 2.50232 8.13015 2.39093 9.2213 2.60797C10.3124 2.82501 11.3147 3.36074 12.1014 4.14741C12.8881 4.93408 13.4238 5.93636 13.6408 7.02751C13.8579 8.11865 13.7465 9.24965 13.3207 10.2775C12.895 11.3053 12.174 12.1838 11.249 12.8019C10.324 13.42 9.23643 13.7499 8.12391 13.7499C6.63258 13.7482 5.2028 13.1551 4.14826 12.1005C3.09373 11.046 2.50057 9.61622 2.49891 8.12489Z" fill="#1C1C1C"/>
</svg>
