<svg width="18" height="18" viewBox="0 0 18 18" fill="none" xmlns="http://www.w3.org/2000/svg">
<path d="M2.41496 3.21048C2.36266 3.15818 2.32118 3.0961 2.29287 3.02777C2.26457 2.95943 2.25 2.8862 2.25 2.81223C2.25 2.73827 2.26457 2.66503 2.29287 2.5967C2.32118 2.52837 2.36266 2.46628 2.41496 2.41398C2.46726 2.36168 2.52935 2.3202 2.59768 2.2919C2.66601 2.26359 2.73925 2.24902 2.81321 2.24902C2.88717 2.24902 2.96041 2.26359 3.02874 2.2919C3.09707 2.3202 3.15916 2.36168 3.21146 2.41398L9.00071 8.20436L14.79 2.41398C14.8423 2.36168 14.9043 2.3202 14.9727 2.2919C15.041 2.26359 15.1142 2.24902 15.1882 2.24902C15.2622 2.24902 15.3354 2.26359 15.4037 2.2919C15.4721 2.3202 15.5342 2.36168 15.5865 2.41398C15.6388 2.46628 15.6802 2.52837 15.7085 2.5967C15.7369 2.66503 15.7514 2.73827 15.7514 2.81223C15.7514 2.8862 15.7369 2.95943 15.7085 3.02777C15.6802 3.0961 15.6388 3.15818 15.5865 3.21048L9.79608 8.99973L15.5865 14.789C15.6388 14.8413 15.6802 14.9034 15.7085 14.9717C15.7369 15.04 15.7514 15.1133 15.7514 15.1872C15.7514 15.2612 15.7369 15.3344 15.7085 15.4028C15.6802 15.4711 15.6388 15.5332 15.5865 15.5855C15.5342 15.6378 15.4721 15.6793 15.4037 15.7076C15.3354 15.7359 15.2622 15.7504 15.1882 15.7504C15.1142 15.7504 15.041 15.7359 14.9727 15.7076C14.9043 15.6793 14.8423 15.6378 14.79 15.5855L9.00071 9.79511L3.21146 15.5855C3.15916 15.6378 3.09707 15.6793 3.02874 15.7076C2.96041 15.7359 2.88717 15.7504 2.81321 15.7504C2.73925 15.7504 2.66601 15.7359 2.59768 15.7076C2.52935 15.6793 2.46726 15.6378 2.41496 15.5855C2.36266 15.5332 2.32118 15.4711 2.29287 15.4028C2.26457 15.3344 2.25 15.2612 2.25 15.1872C2.25 15.1133 2.26457 15.04 2.29287 14.9717C2.32118 14.9034 2.36266 14.8413 2.41496 14.789L8.20533 8.99973L2.41496 3.21048Z" fill="#1C1C1C"/>
</svg>
